# xmcd
#
# Track frame offsets:
#	150
#	11215
#	22578
#	40905
#	52293
#	69045
#	77848
#	93758
#	106055
#	116823
#	135625
#	148173
#	162070
#	177540
#	186765
#	199020
#
# Disc length: 2897 seconds
#
# Revision: 1
# Processed by: cddbd v1.5.2PL0 Copyright (c) Steve Scherf et al.
# Submitted via: EasyCDDAExtractor 15.3.0.1
#
DISCID=d30b4f10
DTITLE=Daniel O'Donnell - From the heart
DYEAR=1988
DGENRE=Country
TTITLE0=Minute You're Gone
TTITLE1=It Doesn't Matter Anymore
TTITLE2=Mary From Dungloe
TTITLE3=Bye Bye Love
TTITLE4=Old Rugged Cross
TTITLE5=Wasting My Time
TTITLE6=Kelly
TTITLE7=Things
TTITLE8=Act Naturally
TTITLE9=Honey
TTITLE10=Wooden Heart
TTITLE11=It Keeps Right on A'Hurting
TTITLE12=My Bonnie Maureen
TTITLE13=I Know That You Know
TTITLE14=Old Dungarvan Oak
TTITLE15=Danny Boy
EXTD=
EXTT0=
EXTT1=
EXTT2=
EXTT3=
EXTT4=
EXTT5=
EXTT6=
EXTT7=
EXTT8=
EXTT9=
EXTT10=
EXTT11=
EXTT12=
EXTT13=
EXTT14=
EXTT15=
PLAYORDER=
